<svg id="DIRECTV_2021_New_Logo_-_white_inverted" data-name="DIRECTV 2021 New Logo - white inverted" xmlns="http://www.w3.org/2000/svg" width="180" height="34.141" viewBox="0 0 180 34.141">
  <path id="Path_387" data-name="Path 387" d="M1040.964,82.171c-.659,2.994-2.641,4.762-5.576,4.762a5.357,5.357,0,0,1-4.791-2.574c-1.119-1.759-1.007-5.751-1.007-6.973h0s-.03-6.815.19-7.654c-2.615-.107-5.068-.182-6.68-.225-.234,1.015-.176,8.752-.176,8.752h0c.019,3.752.291,7.134,2.416,9.848a12.608,12.608,0,0,0,10.035,4.676,12,12,0,0,0,12.357-10.611Z" transform="translate(-923.974 -58.641)" fill="#3379ce"/>
  <path id="Path_388" data-name="Path 388" d="M1031.416,53.356a5.61,5.61,0,0,1,9.984.816c2.352.271,4.765.611,7.143,1.038-.873-5.725-5.183-10.386-12.284-10.386a13.008,13.008,0,0,0-6.738,1.741,10.975,10.975,0,0,0-5.107,6.569C1026.053,53.152,1028.5,53.206,1031.416,53.356Z" transform="translate(-924.811 -44.824)" fill="#fff"/>
  <path id="Path_389" data-name="Path 389" d="M819.156,48.636c-2.167-2.269-5.334-3.207-9.312-3.207H798.156V70.638q3.175-1.249,6.562-2.431V51.275h5.018a5.876,5.876,0,0,1,4.844,2.078c1.265,1.6,1.388,2.951,1.388,11.3,2.143-.611,6.583-1.771,6.583-1.771C822.551,54.785,822.553,52.192,819.156,48.636Z" transform="translate(-798.156 -45.163)" fill="#fff"/>
  <path id="Path_390" data-name="Path 390" d="M915.182,80.926a9.01,9.01,0,0,0,5.806-6.231,241.419,241.419,0,0,0-23.725,4.742V95.408h6.553v-13.4h4.719l6.553,13.4h7.592Z" transform="translate(-853.635 -61.545)" fill="#3379ce"/>
  <path id="Path_391" data-name="Path 391" d="M986.668,87.6H971.156V79.512h13.251v-.048h0V73.632H971.156v-2.3q-3.238.291-6.554.689V93.523h22.114V87.669h-.048Z" transform="translate(-891.33 -59.66)" fill="#3379ce"/>
  <path id="Path_392" data-name="Path 392" d="M813.82,109.16a12.228,12.228,0,0,0,8.87-3.217,11.251,11.251,0,0,0,3.157-6.682,143.357,143.357,0,0,0-21.378,9.9Z" transform="translate(-801.69 -75.297)" fill="#3379ce"/>
  <path id="Path_393" data-name="Path 393" d="M867.353,103.745h6.553V89.589q-3.352.979-6.553,2.041Z" transform="translate(-836.891 -69.883)" fill="#3379ce"/>
  <path id="Path_394" data-name="Path 394" d="M867.353,61.446q3.209-.728,6.553-1.4V45.464h-6.553Z" transform="translate(-836.891 -45.183)" fill="#fff"/>
  <path id="Path_395" data-name="Path 395" d="M986.668,45.46H964.6v9.276q3.288-.3,6.554-.536V51.307h15.56V45.462h-.048Z" transform="translate(-891.33 -45.18)" fill="#fff"/>
  <path id="Path_396" data-name="Path 396" d="M1161.442,79.045h-4.907l-11.079-33.581h6.785l6.748,21.88,6.744-21.88h6.836Z" transform="translate(-992.568 -45.183)" fill="#3379ce"/>
  <path id="Path_397" data-name="Path 397" d="M1098.7,51.309V79.044h-6.555V51.309h-8.772V45.462h24.1v5.847Z" transform="translate(-957.818 -45.182)" fill="#3379ce"/>
  <path id="Path_398" data-name="Path 398" d="M903.816,51.307h6.177a4.4,4.4,0,0,1,4.765,4.782L921.3,55.3c-.2-5.414-4.219-9.844-10.876-9.844H897.263V58.791q3.247-.584,6.553-1.116Z" transform="translate(-853.635 -45.18)" fill="#fff"/>
</svg>
